<?xml version="1.0" encoding="UTF-8"?>
<svg version="1.1" xmlns="http://www.w3.org/2000/svg" width="67" height="78">
<path d="M0 0 C4.87885059 0.41818719 6.77959703 2.44929929 10 6 C10.763125 6.721875 11.52625 7.44375 12.3125 8.1875 C14 10 14 10 14 12 C17.91171934 13.23955782 21.87126338 13.29345287 25.9375 13.375 C26.64068359 13.41238281 27.34386719 13.44976562 28.06835938 13.48828125 C31.95030107 13.55376855 33.71610846 13.23194543 36.75390625 10.75 C37.49511719 9.8425 38.23632812 8.935 39 8 C40.32768826 6.53652544 41.66062667 5.077788 43 3.625 C43.9590625 2.56152344 43.9590625 2.56152344 44.9375 1.4765625 C47 0 47 0 49.5625 -0.2265625 C52 1 52 1 53.78125 4.3125 C55.82262499 10.74627175 55.46947012 17.47597954 55.52734375 24.15625 C55.6646321 30.55227183 56.59289972 35.09912949 59 41 C60.09922309 50.90482741 59.58781432 60.99947652 53.5 69.125 C51.65625 71.3828125 51.65625 71.3828125 50 73 C49.34 73 48.68 73 48 73 C47.505 74.485 47.505 74.485 47 76 C44.4051511 77.99603762 42.93016088 77.99741337 39.625 77.875 C34.32629485 76.5960022 31.02708102 74.54062153 28 70 C25.58655333 69.33256123 25.58655333 69.33256123 23 70 C20.93897879 72.32601524 20.93897879 72.32601524 19 75 C16.02355941 77.41333021 14.54248636 77.98976441 10.6875 78.0625 C3.80058752 76.07813539 -1.47565915 71.70086613 -5.03515625 65.46875 C-7.0961354 60.19531348 -7.52760391 54.60314256 -8 49 C-8.0721875 48.20851562 -8.144375 47.41703125 -8.21875 46.6015625 C-8.38637812 43.06740299 -7.91191982 40.79447959 -6.51171875 37.52734375 C-4.04412526 31.17729586 -4.53038324 24.47280685 -4.47265625 17.75585938 C-4.34340939 11.71546925 -3.84912327 7.35664248 -1 2 C-0.67 1.34 -0.34 0.68 0 0 Z " fill="#050505" transform="translate(8,0)"/>
<path d="M0 0 C2.3125 0 2.3125 0 5 1 C8.72794066 8.54485365 8.45573163 15.89016565 8.52734375 24.15625 C8.6646321 30.55227183 9.59289972 35.09912949 12 41 C13.09922309 50.90482741 12.58781432 60.99947652 6.5 69.125 C4.65625 71.3828125 4.65625 71.3828125 3 73 C2.34 73 1.68 73 1 73 C0.505 74.485 0.505 74.485 0 76 C-2.5948489 77.99603762 -4.06983912 77.99741337 -7.375 77.875 C-12.67370515 76.5960022 -15.97291898 74.54062153 -19 70 C-21.41344667 69.33256123 -21.41344667 69.33256123 -24 70 C-26.06102121 72.32601524 -26.06102121 72.32601524 -28 75 C-30.97644059 77.41333021 -32.45751364 77.98976441 -36.3125 78.0625 C-43.19941248 76.07813539 -48.47565915 71.70086613 -52.03515625 65.46875 C-54.0961354 60.19531348 -54.52760391 54.60314256 -55 49 C-55.0721875 48.20851562 -55.144375 47.41703125 -55.21875 46.6015625 C-55.38637812 43.06740299 -54.91191982 40.79447959 -53.51171875 37.52734375 C-51.04412526 31.17729586 -51.53038324 24.47280685 -51.47265625 17.75585938 C-51.34382044 11.73468002 -50.84900926 7.34189236 -48 2 C-47.67 2.66 -47.34 3.32 -47 4 C-47.33 4.66 -47.66 5.32 -48 6 C-48.11825367 7.87649903 -48.17901188 9.75676841 -48.2109375 11.63671875 C-48.23929688 12.77173828 -48.26765625 13.90675781 -48.296875 15.07617188 C-48.3485326 17.46404434 -48.39292656 19.85208613 -48.4296875 22.24023438 C-48.69454126 32.01223446 -48.69454126 32.01223446 -50.51953125 35.73046875 C-52.50648305 40.11853909 -52.40533325 43.87193744 -52.3125 48.625 C-52.31572266 49.45773438 -52.31894531 50.29046875 -52.32226562 51.1484375 C-52.28380366 55.5400951 -52.0383817 59.01349705 -50 63 C-49.5875 63.825 -49.175 64.65 -48.75 65.5 C-45.88248275 69.59645321 -42.15401275 72.23065817 -38 75 C-34.85778033 74.68493373 -34.85778033 74.68493373 -32 74 C-31.505 72.515 -31.505 72.515 -31 71 C-29.67532254 70.3162955 -28.34136367 69.65035814 -27 69 C-26.34 68.01 -25.68 67.02 -25 66 C-22.1875 65.5 -22.1875 65.5 -19 66 C-16.25 68.4375 -16.25 68.4375 -14 71 C-13.01 71.495 -13.01 71.495 -12 72 C-12 72.66 -12 73.32 -12 74 C-8.55442003 74.88142743 -6.66893248 75.30261231 -3.375 73.8125 C1.27281721 70.2654816 3.43486116 67.73884242 5 62 C5.66 62 6.32 62 7 62 C9.24010165 53.5996188 11.05018694 44.87587756 6.98046875 36.8515625 C4.38686975 31.34852179 4.65349049 26.3508714 4.9375 20.375 C5.23940485 13.39964613 5.36127381 8.23363506 2 2 C0.68 2.33 -0.64 2.66 -2 3 C-1.34 2.01 -0.68 1.02 0 0 Z " fill="#D4D4D3" transform="translate(55,0)"/>
<path d="M0 0 C2.3125 0 2.3125 0 5 1 C8.72794066 8.54485365 8.45573163 15.89016565 8.52734375 24.15625 C8.6646321 30.55227183 9.59289972 35.09912949 12 41 C13.10550874 50.96146587 12.61125731 61.03676325 6.375 69.125 C5.26734976 70.43157519 4.14824268 71.72895062 3 73 C2.34 72.67 1.68 72.34 1 72 C1 71.01 1 70.02 1 69 C1.99 68.505 1.99 68.505 3 68 C3.72693904 66.02111039 4.39816251 64.02045442 5 62 C5.66 62 6.32 62 7 62 C9.24010165 53.5996188 11.05018694 44.87587756 6.98046875 36.8515625 C4.38686975 31.34852179 4.65349049 26.3508714 4.9375 20.375 C5.23940485 13.39964613 5.36127381 8.23363506 2 2 C0.68 2.33 -0.64 2.66 -2 3 C-1.34 2.01 -0.68 1.02 0 0 Z " fill="#F1F1EF" transform="translate(55,0)"/>
<path d="M0 0 C4.87885059 0.41818719 6.77959703 2.44929929 10 6 C10.763125 6.721875 11.52625 7.44375 12.3125 8.1875 C14 10 14 10 14 12 C17.9534251 13.3006046 21.95100248 13.14720431 26.0625 13.125 C26.78244141 13.12886719 27.50238281 13.13273438 28.24414062 13.13671875 C31.42708639 13.13080799 33.95947862 13.01350713 37 12 C37 12.66 37 13.32 37 14 C30.96901069 17.01549466 21.38619399 16.62320468 15 15 C10.83090061 12.4188008 8.0733013 8.75549285 5.21484375 4.84375 C4.48394531 3.9053125 3.75304687 2.966875 3 2 C2.01 2 1.02 2 0 2 C0 1.34 0 0.68 0 0 Z " fill="#EDEDEC" transform="translate(8,0)"/>
<path d="M0 0 C0.99 0 1.98 0 3 0 C1.70970987 6.19339263 -0.9964167 10.15289443 -5 15 C-5.66 14.67 -6.32 14.34 -7 14 C-7 13.01 -7 12.02 -7 11 C-6.34 10.67 -5.68 10.34 -5 10 C-4.27306096 8.02111039 -3.60183749 6.02045442 -3 4 C-2.34 4 -1.68 4 -1 4 C-0.67 2.68 -0.34 1.36 0 0 Z " fill="#E1E0DE" transform="translate(63,58)"/>
<path d="M0 0 C3.42414806 3.42414806 3.16102448 6.74707855 3.1875 11.375 C3.20167969 12.49648438 3.21585937 13.61796875 3.23046875 14.7734375 C3.00365368 17.94884842 2.35390668 20.14234718 1 23 C0.67 23 0.34 23 0 23 C0 15.41 0 7.82 0 0 Z " fill="#F7F7F5" transform="translate(64,36)"/>
<path d="M0 0 C0.66 0.33 1.32 0.66 2 1 C1.06788763 3.33028092 0.30996602 4.75891532 -1.6875 6.3125 C-5.03100189 7.30651407 -7.63810737 6.76118324 -11 6 C-11.33 5.34 -11.66 4.68 -12 4 C-11.13375 4.0825 -10.2675 4.165 -9.375 4.25 C-5.24011993 3.94371259 -3.25357303 2.47891278 0 0 Z " fill="#F4F3F2" transform="translate(55,71)"/>
<path d="M0 0 C1.67250523 3.10293734 2.77361582 6.17739446 3.75 9.5625 C4.17539063 10.98755859 4.17539063 10.98755859 4.609375 12.44140625 C5 15 5 15 3 18 C-0.24201565 11.92122066 -0.33278764 6.81598387 0 0 Z " fill="#DADAD9" transform="translate(60,21)"/>
<path d="M0 0 C0.99 0.33 1.98 0.66 3 1 C1.90220176 2.15193623 0.79650554 3.29634937 -0.3125 4.4375 C-0.92738281 5.07558594 -1.54226562 5.71367187 -2.17578125 6.37109375 C-4 8 -4 8 -7 9 C-5.44499019 5.18315774 -2.96404505 2.80804268 0 0 Z " fill="#6E6E6E" transform="translate(52,3)"/>
<path d="M0 0 C0.66 0 1.32 0 2 0 C1.67 1.65 1.34 3.3 1 5 C-0.65 5.33 -2.3 5.66 -4 6 C-4.33 4.35 -4.66 2.7 -5 1 C-4.34 1 -3.68 1 -3 1 C-3 1.99 -3 2.98 -3 4 C-2.01 4 -1.02 4 0 4 C0 2.68 0 1.36 0 0 Z " fill="#DADAD9" transform="translate(46,35)"/>
<path d="M0 0 C0.78375 0.474375 1.5675 0.94875 2.375 1.4375 C3.88948678 2.33898023 5.4235897 3.21179485 7 4 C7 4.66 7 5.32 7 6 C7.66 6.33 8.32 6.66 9 7 C6.75 7.3125 6.75 7.3125 4 7 C0 2.89189189 0 2.89189189 0 0 Z " fill="#E0E0DE" transform="translate(36,68)"/>
<path d="M0 0 C0.66 0 1.32 0 2 0 C2 1.32 2 2.64 2 4 C2.99 4 3.98 4 5 4 C5.33 3.01 5.66 2.02 6 1 C6.33 2.32 6.66 3.64 7 5 C4.625 5.625 4.625 5.625 2 6 C1.34 5.34 0.68 4.68 0 4 C0 2.68 0 1.36 0 0 Z " fill="#E0E0DF" transform="translate(18,35)"/>
<path d="M0 0 C0.99 0.33 1.98 0.66 3 1 C2.34 1 1.68 1 1 1 C0.34 2.32 -0.32 3.64 -1 5 C-2.65 5 -4.3 5 -6 5 C-2.25 1.125 -2.25 1.125 0 0 Z " fill="#F3F2F1" transform="translate(23,73)"/>
</svg>
